<svg width="708" height="230" viewBox="0 0 708 230" fill="none" xmlns="http://www.w3.org/2000/svg">
<rect width="708" height="230" rx="10" fill="#F6F9FF"/>
<path d="M370.1 82H338.9C337.866 82 336.874 82.4109 336.142 83.1423C335.411 83.8737 335 84.8657 335 85.9V109.3C335 110.334 335.411 111.326 336.142 112.058C336.874 112.789 337.866 113.2 338.9 113.2H370.1C371.134 113.2 372.126 112.789 372.858 112.058C373.589 111.326 374 110.334 374 109.3V85.9C374 84.8657 373.589 83.8737 372.858 83.1423C372.126 82.4109 371.134 82 370.1 82ZM338.9 111.25C338.383 111.25 337.887 111.045 337.521 110.679C337.155 110.313 336.95 109.817 336.95 109.3V105.8L344.75 97.9997C345.009 97.7425 345.36 97.5982 345.725 97.5982C346.09 97.5982 346.441 97.7425 346.7 97.9997L351.175 102.475L342.4 111.25H338.9ZM372.05 109.3C372.05 109.817 371.845 110.313 371.479 110.679C371.113 111.045 370.617 111.25 370.1 111.25H345.15L360.292 96.118C360.576 95.8285 360.963 95.6614 361.369 95.6523C361.775 95.6432 362.168 95.7928 362.466 96.0692L372.05 104.844V109.3ZM372.05 102.202L363.782 94.675C363.113 94.06 362.232 93.7277 361.323 93.7477C360.414 93.7677 359.549 94.1384 358.907 94.7823L352.55 101.1L348.075 96.625C347.451 96.0022 346.606 95.6524 345.725 95.6524C344.844 95.6524 343.999 96.0022 343.375 96.625L336.95 103.05V85.9C336.95 85.3828 337.155 84.8868 337.521 84.5211C337.887 84.1554 338.383 83.95 338.9 83.95H370.1C370.617 83.95 371.113 84.1554 371.479 84.5211C371.845 84.8868 372.05 85.3828 372.05 85.9V102.202Z" fill="#BDC6DA"/>
<path d="M352.548 85.9004C351.777 85.9004 351.023 86.1291 350.382 86.5577C349.74 86.9862 349.24 87.5953 348.945 88.3079C348.65 89.0206 348.573 89.8047 348.723 90.5612C348.874 91.3178 349.245 92.0127 349.791 92.5581C350.336 93.1035 351.031 93.475 351.788 93.6255C352.544 93.7759 353.328 93.6987 354.041 93.4035C354.754 93.1083 355.363 92.6085 355.791 91.9671C356.22 91.3258 356.448 90.5717 356.448 89.8004C356.448 88.766 356.038 87.7741 355.306 87.0427C354.575 86.3113 353.583 85.9004 352.548 85.9004ZM352.548 91.7504C352.163 91.7504 351.786 91.636 351.465 91.4218C351.144 91.2075 350.894 90.9029 350.747 90.5466C350.599 90.1903 350.561 89.7982 350.636 89.42C350.711 89.0417 350.897 88.6942 351.17 88.4215C351.442 88.1488 351.79 87.9631 352.168 87.8879C352.546 87.8126 352.938 87.8512 353.295 87.9988C353.651 88.1464 353.956 88.3964 354.17 88.717C354.384 89.0377 354.498 89.4147 354.498 89.8004C354.498 90.3176 354.293 90.8136 353.927 91.1792C353.562 91.5449 353.066 91.7504 352.548 91.7504Z" fill="#BDC6DA"/>
<path d="M297.61 139.4L300.984 129.32H302.72L306.094 139.4H304.799L301.642 130.048H302.034L298.905 139.4H297.61ZM299.234 137.041V135.872H304.47V137.041H299.234ZM310.315 139.61C309.611 139.61 309.006 139.435 308.502 139.085C307.998 138.731 307.609 138.252 307.333 137.65C307.063 137.048 306.927 136.369 306.927 135.613C306.927 134.857 307.063 134.178 307.333 133.576C307.609 132.974 307.998 132.501 308.502 132.155C309.006 131.805 309.608 131.63 310.308 131.63C311.022 131.63 311.622 131.803 312.107 132.148C312.593 132.494 312.959 132.967 313.206 133.569C313.458 134.171 313.584 134.853 313.584 135.613C313.584 136.365 313.458 137.044 313.206 137.65C312.959 138.252 312.593 138.731 312.107 139.085C311.622 139.435 311.025 139.61 310.315 139.61ZM310.469 138.469C310.978 138.469 311.396 138.348 311.722 138.105C312.049 137.858 312.289 137.52 312.443 137.09C312.602 136.656 312.681 136.164 312.681 135.613C312.681 135.053 312.602 134.561 312.443 134.136C312.289 133.707 312.051 133.373 311.729 133.135C311.407 132.893 310.999 132.771 310.504 132.771C309.991 132.771 309.566 132.897 309.23 133.149C308.899 133.401 308.652 133.742 308.488 134.171C308.33 134.601 308.25 135.081 308.25 135.613C308.25 136.15 308.332 136.635 308.495 137.069C308.659 137.499 308.904 137.839 309.23 138.091C309.562 138.343 309.975 138.469 310.469 138.469ZM312.681 139.4V133.835H312.541V129.32H313.794V139.4H312.681ZM318.723 139.61C318.019 139.61 317.414 139.435 316.91 139.085C316.406 138.731 316.017 138.252 315.741 137.65C315.471 137.048 315.335 136.369 315.335 135.613C315.335 134.857 315.471 134.178 315.741 133.576C316.017 132.974 316.406 132.501 316.91 132.155C317.414 131.805 318.016 131.63 318.716 131.63C319.43 131.63 320.03 131.803 320.515 132.148C321.001 132.494 321.367 132.967 321.614 133.569C321.866 134.171 321.992 134.853 321.992 135.613C321.992 136.365 321.866 137.044 321.614 137.65C321.367 138.252 321.001 138.731 320.515 139.085C320.03 139.435 319.433 139.61 318.723 139.61ZM318.877 138.469C319.386 138.469 319.804 138.348 320.13 138.105C320.457 137.858 320.697 137.52 320.851 137.09C321.01 136.656 321.089 136.164 321.089 135.613C321.089 135.053 321.01 134.561 320.851 134.136C320.697 133.707 320.459 133.373 320.137 133.135C319.815 132.893 319.407 132.771 318.912 132.771C318.399 132.771 317.974 132.897 317.638 133.149C317.307 133.401 317.06 133.742 316.896 134.171C316.738 134.601 316.658 135.081 316.658 135.613C316.658 136.15 316.74 136.635 316.903 137.069C317.067 137.499 317.312 137.839 317.638 138.091C317.97 138.343 318.383 138.469 318.877 138.469ZM321.089 139.4V133.835H320.949V129.32H322.202V139.4H321.089ZM329.115 139.61C328.551 139.61 328.077 139.508 327.694 139.302C327.316 139.092 327.029 138.817 326.833 138.476C326.642 138.136 326.546 137.762 326.546 137.356C326.546 136.96 326.621 136.617 326.77 136.327C326.924 136.033 327.139 135.791 327.414 135.599C327.69 135.403 328.019 135.249 328.401 135.137C328.761 135.039 329.162 134.955 329.605 134.885C330.053 134.811 330.506 134.743 330.963 134.682C331.421 134.622 331.848 134.563 332.244 134.507L331.796 134.766C331.81 134.094 331.675 133.597 331.39 133.275C331.11 132.953 330.625 132.792 329.934 132.792C329.477 132.792 329.076 132.897 328.73 133.107C328.39 133.313 328.149 133.649 328.009 134.115L326.826 133.758C327.008 133.096 327.361 132.575 327.883 132.197C328.406 131.819 329.094 131.63 329.948 131.63C330.634 131.63 331.222 131.754 331.712 132.001C332.207 132.244 332.562 132.613 332.776 133.107C332.884 133.341 332.951 133.595 332.979 133.87C333.007 134.141 333.021 134.426 333.021 134.724V139.4H331.915V137.587L332.174 137.755C331.89 138.367 331.491 138.829 330.977 139.141C330.469 139.454 329.848 139.61 329.115 139.61ZM329.304 138.567C329.752 138.567 330.14 138.488 330.466 138.329C330.798 138.166 331.064 137.954 331.264 137.692C331.465 137.426 331.596 137.137 331.656 136.824C331.726 136.591 331.764 136.332 331.768 136.047C331.778 135.758 331.782 135.536 331.782 135.382L332.216 135.571C331.81 135.627 331.411 135.681 331.019 135.732C330.627 135.784 330.256 135.84 329.906 135.9C329.556 135.956 329.241 136.024 328.961 136.103C328.756 136.169 328.562 136.253 328.38 136.355C328.203 136.458 328.058 136.591 327.946 136.754C327.839 136.913 327.785 137.111 327.785 137.349C327.785 137.555 327.837 137.751 327.939 137.937C328.047 138.124 328.21 138.276 328.429 138.392C328.653 138.509 328.945 138.567 329.304 138.567ZM334.841 139.4V131.84H335.954V133.667L335.772 133.429C335.861 133.196 335.975 132.981 336.115 132.785C336.26 132.589 336.421 132.428 336.598 132.302C336.794 132.144 337.016 132.022 337.263 131.938C337.511 131.854 337.763 131.805 338.019 131.791C338.276 131.773 338.516 131.789 338.74 131.84V133.009C338.479 132.939 338.192 132.921 337.879 132.953C337.567 132.986 337.277 133.1 337.011 133.296C336.769 133.469 336.58 133.679 336.444 133.926C336.314 134.174 336.223 134.442 336.171 134.731C336.12 135.016 336.094 135.308 336.094 135.606V139.4H334.841ZM344.285 139.4C343.837 139.489 343.394 139.524 342.955 139.505C342.521 139.491 342.134 139.405 341.793 139.246C341.452 139.083 341.193 138.831 341.016 138.49C340.867 138.192 340.785 137.891 340.771 137.587C340.762 137.279 340.757 136.932 340.757 136.544V129.74H342.003V136.488C342.003 136.796 342.005 137.06 342.01 137.279C342.019 137.499 342.068 137.688 342.157 137.846C342.325 138.145 342.591 138.32 342.955 138.371C343.324 138.423 343.767 138.409 344.285 138.329V139.4ZM339.224 132.869V131.84H344.285V132.869H339.224ZM345.96 130.503V129.215H347.206V130.503H345.96ZM345.96 139.4V131.84H347.206V139.4H345.96ZM352.491 139.61C351.726 139.61 351.075 139.44 350.538 139.099C350.006 138.754 349.6 138.28 349.32 137.678C349.04 137.076 348.896 136.39 348.886 135.62C348.896 134.832 349.043 134.139 349.327 133.541C349.617 132.939 350.03 132.47 350.566 132.134C351.103 131.798 351.749 131.63 352.505 131.63C353.303 131.63 353.989 131.826 354.563 132.218C355.142 132.61 355.529 133.147 355.725 133.828L354.493 134.199C354.335 133.761 354.076 133.42 353.716 133.177C353.362 132.935 352.953 132.813 352.491 132.813C351.973 132.813 351.546 132.935 351.21 133.177C350.874 133.415 350.625 133.747 350.461 134.171C350.298 134.591 350.214 135.074 350.209 135.62C350.219 136.46 350.412 137.139 350.79 137.657C351.173 138.171 351.74 138.427 352.491 138.427C352.986 138.427 353.397 138.315 353.723 138.091C354.05 137.863 354.297 137.534 354.465 137.104L355.725 137.433C355.464 138.138 355.056 138.677 354.5 139.05C353.945 139.424 353.275 139.61 352.491 139.61ZM357.089 139.4V129.11H358.335V139.4H357.089ZM363.711 139.61C362.969 139.61 362.32 139.447 361.765 139.12C361.214 138.789 360.785 138.329 360.477 137.741C360.169 137.149 360.015 136.458 360.015 135.669C360.015 134.843 360.167 134.129 360.47 133.527C360.773 132.921 361.196 132.454 361.737 132.127C362.283 131.796 362.922 131.63 363.655 131.63C364.416 131.63 365.062 131.805 365.594 132.155C366.131 132.505 366.532 133.005 366.798 133.653C367.069 134.302 367.185 135.074 367.148 135.97H365.888V135.522C365.874 134.594 365.685 133.901 365.321 133.443C364.957 132.981 364.416 132.75 363.697 132.75C362.927 132.75 362.341 132.998 361.94 133.492C361.539 133.987 361.338 134.696 361.338 135.62C361.338 136.512 361.539 137.202 361.94 137.692C362.341 138.182 362.913 138.427 363.655 138.427C364.154 138.427 364.588 138.313 364.957 138.084C365.326 137.856 365.615 137.527 365.825 137.097L367.022 137.51C366.728 138.178 366.285 138.696 365.692 139.064C365.104 139.428 364.444 139.61 363.711 139.61ZM360.918 135.97V134.969H366.504V135.97H360.918ZM371.649 139.4V129.32H372.895V139.4H371.649ZM384.033 139.4L384.04 134.563C384.04 133.999 383.888 133.558 383.585 133.24C383.286 132.918 382.896 132.757 382.416 132.757C382.136 132.757 381.87 132.823 381.618 132.953C381.366 133.079 381.16 133.28 381.002 133.555C380.843 133.826 380.764 134.174 380.764 134.598L380.106 134.332C380.096 133.796 380.206 133.327 380.435 132.925C380.668 132.519 380.985 132.204 381.387 131.98C381.788 131.756 382.241 131.644 382.745 131.644C383.533 131.644 384.154 131.885 384.607 132.365C385.059 132.841 385.286 133.483 385.286 134.29L385.279 139.4H384.033ZM374.989 139.4V131.84H376.102V133.863H376.242V139.4H374.989ZM379.518 139.4L379.525 134.612C379.525 134.034 379.375 133.581 379.077 133.254C378.778 132.923 378.381 132.757 377.887 132.757C377.397 132.757 377 132.925 376.697 133.261C376.393 133.597 376.242 134.043 376.242 134.598L375.584 134.206C375.584 133.716 375.7 133.278 375.934 132.89C376.167 132.503 376.484 132.2 376.886 131.98C377.287 131.756 377.742 131.644 378.251 131.644C378.759 131.644 379.203 131.752 379.581 131.966C379.959 132.181 380.25 132.489 380.456 132.89C380.661 133.287 380.764 133.761 380.764 134.311L380.757 139.4H379.518ZM389.258 139.61C388.693 139.61 388.22 139.508 387.837 139.302C387.459 139.092 387.172 138.817 386.976 138.476C386.785 138.136 386.689 137.762 386.689 137.356C386.689 136.96 386.764 136.617 386.913 136.327C387.067 136.033 387.282 135.791 387.557 135.599C387.832 135.403 388.161 135.249 388.544 135.137C388.903 135.039 389.305 134.955 389.748 134.885C390.196 134.811 390.649 134.743 391.106 134.682C391.563 134.622 391.99 134.563 392.387 134.507L391.939 134.766C391.953 134.094 391.818 133.597 391.533 133.275C391.253 132.953 390.768 132.792 390.077 132.792C389.62 132.792 389.218 132.897 388.873 133.107C388.532 133.313 388.292 133.649 388.152 134.115L386.969 133.758C387.151 133.096 387.503 132.575 388.026 132.197C388.549 131.819 389.237 131.63 390.091 131.63C390.777 131.63 391.365 131.754 391.855 132.001C392.35 132.244 392.704 132.613 392.919 133.107C393.026 133.341 393.094 133.595 393.122 133.87C393.15 134.141 393.164 134.426 393.164 134.724V139.4H392.058V137.587L392.317 137.755C392.032 138.367 391.633 138.829 391.12 139.141C390.611 139.454 389.991 139.61 389.258 139.61ZM389.447 138.567C389.895 138.567 390.282 138.488 390.609 138.329C390.94 138.166 391.206 137.954 391.407 137.692C391.608 137.426 391.738 137.137 391.799 136.824C391.869 136.591 391.906 136.332 391.911 136.047C391.92 135.758 391.925 135.536 391.925 135.382L392.359 135.571C391.953 135.627 391.554 135.681 391.162 135.732C390.77 135.784 390.399 135.84 390.049 135.9C389.699 135.956 389.384 136.024 389.104 136.103C388.899 136.169 388.705 136.253 388.523 136.355C388.346 136.458 388.201 136.591 388.089 136.754C387.982 136.913 387.928 137.111 387.928 137.349C387.928 137.555 387.979 137.751 388.082 137.937C388.189 138.124 388.353 138.276 388.572 138.392C388.796 138.509 389.088 138.567 389.447 138.567ZM398.043 142.97C397.646 142.97 397.259 142.91 396.881 142.788C396.503 142.667 396.155 142.483 395.838 142.235C395.525 141.993 395.264 141.685 395.054 141.311L396.195 140.709C396.382 141.078 396.645 141.346 396.986 141.514C397.331 141.682 397.686 141.766 398.05 141.766C398.531 141.766 398.93 141.678 399.247 141.5C399.564 141.328 399.798 141.069 399.947 140.723C400.101 140.378 400.176 139.949 400.171 139.435V137.37H400.318V131.84H401.424V139.449C401.424 139.655 401.417 139.853 401.403 140.044C401.394 140.236 401.37 140.425 401.333 140.611C401.235 141.148 401.041 141.589 400.752 141.934C400.463 142.284 400.089 142.543 399.632 142.711C399.175 142.884 398.645 142.97 398.043 142.97ZM397.952 139.61C397.247 139.61 396.643 139.435 396.139 139.085C395.635 138.731 395.245 138.252 394.97 137.65C394.699 137.048 394.564 136.369 394.564 135.613C394.564 134.857 394.699 134.178 394.97 133.576C395.245 132.974 395.635 132.501 396.139 132.155C396.643 131.805 397.245 131.63 397.945 131.63C398.659 131.63 399.259 131.803 399.744 132.148C400.229 132.494 400.596 132.967 400.843 133.569C401.095 134.171 401.221 134.853 401.221 135.613C401.221 136.365 401.095 137.044 400.843 137.65C400.596 138.252 400.229 138.731 399.744 139.085C399.259 139.435 398.661 139.61 397.952 139.61ZM398.106 138.469C398.615 138.469 399.032 138.348 399.359 138.105C399.686 137.858 399.926 137.52 400.08 137.09C400.239 136.656 400.318 136.164 400.318 135.613C400.318 135.053 400.239 134.561 400.08 134.136C399.926 133.707 399.688 133.373 399.366 133.135C399.044 132.893 398.636 132.771 398.141 132.771C397.628 132.771 397.203 132.897 396.867 133.149C396.536 133.401 396.288 133.742 396.125 134.171C395.966 134.601 395.887 135.081 395.887 135.613C395.887 136.15 395.969 136.635 396.132 137.069C396.295 137.499 396.54 137.839 396.867 138.091C397.198 138.343 397.611 138.469 398.106 138.469ZM406.654 139.61C405.912 139.61 405.264 139.447 404.708 139.12C404.158 138.789 403.728 138.329 403.42 137.741C403.112 137.149 402.958 136.458 402.958 135.669C402.958 134.843 403.11 134.129 403.413 133.527C403.717 132.921 404.139 132.454 404.68 132.127C405.226 131.796 405.866 131.63 406.598 131.63C407.359 131.63 408.005 131.805 408.537 132.155C409.074 132.505 409.475 133.005 409.741 133.653C410.012 134.302 410.129 135.074 410.091 135.97H408.831V135.522C408.817 134.594 408.628 133.901 408.264 133.443C407.9 132.981 407.359 132.75 406.64 132.75C405.87 132.75 405.285 132.998 404.883 133.492C404.482 133.987 404.281 134.696 404.281 135.62C404.281 136.512 404.482 137.202 404.883 137.692C405.285 138.182 405.856 138.427 406.598 138.427C407.098 138.427 407.532 138.313 407.9 138.084C408.269 137.856 408.558 137.527 408.768 137.097L409.965 137.51C409.671 138.178 409.228 138.696 408.635 139.064C408.047 139.428 407.387 139.61 406.654 139.61ZM403.861 135.97V134.969H409.447V135.97H403.861Z" fill="#BDC6DA"/>
</svg>
