<svg width="708" height="230" viewBox="0 0 708 230" fill="none" xmlns="http://www.w3.org/2000/svg">
<rect width="708" height="230" rx="10" fill="#F6F9FF"/>
<path d="M370.1 82H338.9C337.866 82 336.874 82.4109 336.142 83.1423C335.411 83.8737 335 84.8657 335 85.9V109.3C335 110.334 335.411 111.326 336.142 112.058C336.874 112.789 337.866 113.2 338.9 113.2H370.1C371.134 113.2 372.126 112.789 372.858 112.058C373.589 111.326 374 110.334 374 109.3V85.9C374 84.8657 373.589 83.8737 372.858 83.1423C372.126 82.4109 371.134 82 370.1 82ZM338.9 111.25C338.383 111.25 337.887 111.045 337.521 110.679C337.155 110.313 336.95 109.817 336.95 109.3V105.8L344.75 97.9997C345.009 97.7425 345.36 97.5982 345.725 97.5982C346.09 97.5982 346.441 97.7425 346.7 97.9997L351.175 102.475L342.4 111.25H338.9ZM372.05 109.3C372.05 109.817 371.845 110.313 371.479 110.679C371.113 111.045 370.617 111.25 370.1 111.25H345.15L360.292 96.118C360.576 95.8285 360.963 95.6614 361.369 95.6523C361.775 95.6432 362.168 95.7928 362.466 96.0692L372.05 104.844V109.3ZM372.05 102.202L363.782 94.675C363.113 94.06 362.232 93.7277 361.323 93.7477C360.414 93.7677 359.549 94.1384 358.907 94.7823L352.55 101.1L348.075 96.625C347.451 96.0022 346.606 95.6524 345.725 95.6524C344.844 95.6524 343.999 96.0022 343.375 96.625L336.95 103.05V85.9C336.95 85.3828 337.155 84.8868 337.521 84.5211C337.887 84.1554 338.383 83.95 338.9 83.95H370.1C370.617 83.95 371.113 84.1554 371.479 84.5211C371.845 84.8868 372.05 85.3828 372.05 85.9V102.202Z" fill="#BDC6DA"/>
<path d="M352.548 85.9004C351.777 85.9004 351.023 86.1291 350.382 86.5577C349.74 86.9862 349.24 87.5953 348.945 88.3079C348.65 89.0206 348.573 89.8047 348.723 90.5612C348.874 91.3178 349.245 92.0127 349.791 92.5581C350.336 93.1035 351.031 93.475 351.788 93.6255C352.544 93.7759 353.328 93.6987 354.041 93.4035C354.754 93.1083 355.363 92.6085 355.791 91.9671C356.22 91.3258 356.448 90.5717 356.448 89.8004C356.448 88.766 356.038 87.7741 355.306 87.0427C354.575 86.3113 353.583 85.9004 352.548 85.9004ZM352.548 91.7504C352.163 91.7504 351.786 91.636 351.465 91.4218C351.144 91.2075 350.894 90.9029 350.747 90.5466C350.599 90.1903 350.561 89.7982 350.636 89.42C350.711 89.0417 350.897 88.6942 351.17 88.4215C351.442 88.1488 351.79 87.9631 352.168 87.8879C352.546 87.8126 352.938 87.8512 353.295 87.9988C353.651 88.1464 353.956 88.3964 354.17 88.717C354.384 89.0377 354.498 89.4147 354.498 89.8004C354.498 90.3176 354.293 90.8136 353.927 91.1792C353.562 91.5449 353.066 91.7504 352.548 91.7504Z" fill="#BDC6DA"/>
<path d="M320.382 139.4L323.756 129.32H325.492L328.866 139.4H327.571L324.414 130.048H324.806L321.677 139.4H320.382ZM322.006 137.041V135.872H327.242V137.041H322.006ZM333.087 139.61C332.382 139.61 331.778 139.435 331.274 139.085C330.77 138.731 330.38 138.252 330.105 137.65C329.834 137.048 329.699 136.369 329.699 135.613C329.699 134.857 329.834 134.178 330.105 133.576C330.38 132.974 330.77 132.501 331.274 132.155C331.778 131.805 332.38 131.63 333.08 131.63C333.794 131.63 334.393 131.803 334.879 132.148C335.364 132.494 335.73 132.967 335.978 133.569C336.23 134.171 336.356 134.853 336.356 135.613C336.356 136.365 336.23 137.044 335.978 137.65C335.73 138.252 335.364 138.731 334.879 139.085C334.393 139.435 333.796 139.61 333.087 139.61ZM333.241 138.469C333.749 138.469 334.167 138.348 334.494 138.105C334.82 137.858 335.061 137.52 335.215 137.09C335.373 136.656 335.453 136.164 335.453 135.613C335.453 135.053 335.373 134.561 335.215 134.136C335.061 133.707 334.823 133.373 334.501 133.135C334.179 132.893 333.77 132.771 333.276 132.771C332.762 132.771 332.338 132.897 332.002 133.149C331.67 133.401 331.423 133.742 331.26 134.171C331.101 134.601 331.022 135.081 331.022 135.613C331.022 136.15 331.103 136.635 331.267 137.069C331.43 137.499 331.675 137.839 332.002 138.091C332.333 138.343 332.746 138.469 333.241 138.469ZM335.453 139.4V133.835H335.313V129.32H336.566V139.4H335.453ZM341.495 139.61C340.79 139.61 340.186 139.435 339.682 139.085C339.178 138.731 338.788 138.252 338.513 137.65C338.242 137.048 338.107 136.369 338.107 135.613C338.107 134.857 338.242 134.178 338.513 133.576C338.788 132.974 339.178 132.501 339.682 132.155C340.186 131.805 340.788 131.63 341.488 131.63C342.202 131.63 342.802 131.803 343.287 132.148C343.772 132.494 344.139 132.967 344.386 133.569C344.638 134.171 344.764 134.853 344.764 135.613C344.764 136.365 344.638 137.044 344.386 137.65C344.139 138.252 343.772 138.731 343.287 139.085C342.802 139.435 342.204 139.61 341.495 139.61ZM341.649 138.469C342.158 138.469 342.575 138.348 342.902 138.105C343.229 137.858 343.469 137.52 343.623 137.09C343.782 136.656 343.861 136.164 343.861 135.613C343.861 135.053 343.782 134.561 343.623 134.136C343.469 133.707 343.231 133.373 342.909 133.135C342.587 132.893 342.179 132.771 341.684 132.771C341.171 132.771 340.746 132.897 340.41 133.149C340.079 133.401 339.831 133.742 339.668 134.171C339.509 134.601 339.43 135.081 339.43 135.613C339.43 136.15 339.512 136.635 339.675 137.069C339.838 137.499 340.083 137.839 340.41 138.091C340.741 138.343 341.154 138.469 341.649 138.469ZM343.861 139.4V133.835H343.721V129.32H344.974V139.4H343.861ZM349.878 139.4V129.32H351.124V139.4H349.878ZM362.261 139.4L362.268 134.563C362.268 133.999 362.116 133.558 361.813 133.24C361.514 132.918 361.125 132.757 360.644 132.757C360.364 132.757 360.098 132.823 359.846 132.953C359.594 133.079 359.389 133.28 359.23 133.555C359.071 133.826 358.992 134.174 358.992 134.598L358.334 134.332C358.325 133.796 358.434 133.327 358.663 132.925C358.896 132.519 359.214 132.204 359.615 131.98C360.016 131.756 360.469 131.644 360.973 131.644C361.762 131.644 362.382 131.885 362.835 132.365C363.288 132.841 363.514 133.483 363.514 134.29L363.507 139.4H362.261ZM353.217 139.4V131.84H354.33V133.863H354.47V139.4H353.217ZM357.746 139.4L357.753 134.612C357.753 134.034 357.604 133.581 357.305 133.254C357.006 132.923 356.61 132.757 356.115 132.757C355.625 132.757 355.228 132.925 354.925 133.261C354.622 133.597 354.47 134.043 354.47 134.598L353.812 134.206C353.812 133.716 353.929 133.278 354.162 132.89C354.395 132.503 354.713 132.2 355.114 131.98C355.515 131.756 355.97 131.644 356.479 131.644C356.988 131.644 357.431 131.752 357.809 131.966C358.187 132.181 358.479 132.489 358.684 132.89C358.889 133.287 358.992 133.761 358.992 134.311L358.985 139.4H357.746ZM367.486 139.61C366.922 139.61 366.448 139.508 366.065 139.302C365.687 139.092 365.4 138.817 365.204 138.476C365.013 138.136 364.917 137.762 364.917 137.356C364.917 136.96 364.992 136.617 365.141 136.327C365.295 136.033 365.51 135.791 365.785 135.599C366.061 135.403 366.39 135.249 366.772 135.137C367.132 135.039 367.533 134.955 367.976 134.885C368.424 134.811 368.877 134.743 369.334 134.682C369.792 134.622 370.219 134.563 370.615 134.507L370.167 134.766C370.181 134.094 370.046 133.597 369.761 133.275C369.481 132.953 368.996 132.792 368.305 132.792C367.848 132.792 367.447 132.897 367.101 133.107C366.761 133.313 366.52 133.649 366.38 134.115L365.197 133.758C365.379 133.096 365.732 132.575 366.254 132.197C366.777 131.819 367.465 131.63 368.319 131.63C369.005 131.63 369.593 131.754 370.083 132.001C370.578 132.244 370.933 132.613 371.147 133.107C371.255 133.341 371.322 133.595 371.35 133.87C371.378 134.141 371.392 134.426 371.392 134.724V139.4H370.286V137.587L370.545 137.755C370.261 138.367 369.862 138.829 369.348 139.141C368.84 139.454 368.219 139.61 367.486 139.61ZM367.675 138.567C368.123 138.567 368.511 138.488 368.837 138.329C369.169 138.166 369.435 137.954 369.635 137.692C369.836 137.426 369.967 137.137 370.027 136.824C370.097 136.591 370.135 136.332 370.139 136.047C370.149 135.758 370.153 135.536 370.153 135.382L370.587 135.571C370.181 135.627 369.782 135.681 369.39 135.732C368.998 135.784 368.627 135.84 368.277 135.9C367.927 135.956 367.612 136.024 367.332 136.103C367.127 136.169 366.933 136.253 366.751 136.355C366.574 136.458 366.429 136.591 366.317 136.754C366.21 136.913 366.156 137.111 366.156 137.349C366.156 137.555 366.208 137.751 366.31 137.937C366.418 138.124 366.581 138.276 366.8 138.392C367.024 138.509 367.316 138.567 367.675 138.567ZM376.271 142.97C375.875 142.97 375.487 142.91 375.109 142.788C374.731 142.667 374.384 142.483 374.066 142.235C373.754 141.993 373.492 141.685 373.282 141.311L374.423 140.709C374.61 141.078 374.874 141.346 375.214 141.514C375.56 141.682 375.914 141.766 376.278 141.766C376.759 141.766 377.158 141.678 377.475 141.5C377.793 141.328 378.026 141.069 378.175 140.723C378.329 140.378 378.404 139.949 378.399 139.435V137.37H378.546V131.84H379.652V139.449C379.652 139.655 379.645 139.853 379.631 140.044C379.622 140.236 379.599 140.425 379.561 140.611C379.463 141.148 379.27 141.589 378.98 141.934C378.691 142.284 378.318 142.543 377.86 142.711C377.403 142.884 376.873 142.97 376.271 142.97ZM376.18 139.61C375.476 139.61 374.871 139.435 374.367 139.085C373.863 138.731 373.474 138.252 373.198 137.65C372.928 137.048 372.792 136.369 372.792 135.613C372.792 134.857 372.928 134.178 373.198 133.576C373.474 132.974 373.863 132.501 374.367 132.155C374.871 131.805 375.473 131.63 376.173 131.63C376.887 131.63 377.487 131.803 377.972 132.148C378.458 132.494 378.824 132.967 379.071 133.569C379.323 134.171 379.449 134.853 379.449 135.613C379.449 136.365 379.323 137.044 379.071 137.65C378.824 138.252 378.458 138.731 377.972 139.085C377.487 139.435 376.89 139.61 376.18 139.61ZM376.334 138.469C376.843 138.469 377.261 138.348 377.587 138.105C377.914 137.858 378.154 137.52 378.308 137.09C378.467 136.656 378.546 136.164 378.546 135.613C378.546 135.053 378.467 134.561 378.308 134.136C378.154 133.707 377.916 133.373 377.594 133.135C377.272 132.893 376.864 132.771 376.369 132.771C375.856 132.771 375.431 132.897 375.095 133.149C374.764 133.401 374.517 133.742 374.353 134.171C374.195 134.601 374.115 135.081 374.115 135.613C374.115 136.15 374.197 136.635 374.36 137.069C374.524 137.499 374.769 137.839 375.095 138.091C375.427 138.343 375.84 138.469 376.334 138.469ZM384.883 139.61C384.141 139.61 383.492 139.447 382.937 139.12C382.386 138.789 381.957 138.329 381.649 137.741C381.341 137.149 381.187 136.458 381.187 135.669C381.187 134.843 381.339 134.129 381.642 133.527C381.945 132.921 382.368 132.454 382.909 132.127C383.455 131.796 384.094 131.63 384.827 131.63C385.588 131.63 386.234 131.805 386.766 132.155C387.303 132.505 387.704 133.005 387.97 133.653C388.241 134.302 388.357 135.074 388.32 135.97H387.06V135.522C387.046 134.594 386.857 133.901 386.493 133.443C386.129 132.981 385.588 132.75 384.869 132.75C384.099 132.75 383.513 132.998 383.112 133.492C382.711 133.987 382.51 134.696 382.51 135.62C382.51 136.512 382.711 137.202 383.112 137.692C383.513 138.182 384.085 138.427 384.827 138.427C385.326 138.427 385.76 138.313 386.129 138.084C386.498 137.856 386.787 137.527 386.997 137.097L388.194 137.51C387.9 138.178 387.457 138.696 386.864 139.064C386.276 139.428 385.616 139.61 384.883 139.61ZM382.09 135.97V134.969H387.676V135.97H382.09Z" fill="#BDC6DA"/>
</svg>
